<?xml version="1.0" standalone="no"?>
<!DOCTYPE svg PUBLIC "-//W3C//DTD SVG 20010904//EN"
 "http://www.w3.org/TR/2001/REC-SVG-20010904/DTD/svg10.dtd">
<svg version="1.0" xmlns="http://www.w3.org/2000/svg"
 width="724.000000pt" height="604.000000pt" viewBox="0 0 724.000000 604.000000"
 preserveAspectRatio="xMidYMid meet">

<g transform="translate(0.000000,604.000000) scale(0.100000,-0.100000)"
fill="#000000" stroke="none">
<path d="M1900 4382 c0 -187 1 -200 20 -217 44 -40 97 15 99 102 1 49 45 139
86 176 34 31 36 37 33 83 l-3 49 -117 3 -118 3 0 -199z"/>
<path d="M2217 4574 c-4 -4 -7 -247 -7 -540 0 -309 -4 -543 -9 -557 -6 -14
-20 -28 -33 -32 -49 -14 -68 -28 -68 -53 0 -49 14 -51 310 -51 296 0 310 2
310 51 0 29 -17 48 -44 48 -12 0 -30 7 -41 16 -20 14 -20 28 -23 567 l-2 552
-193 3 c-106 1 -196 -1 -200 -4z"/>
<path d="M2690 4527 c0 -47 4 -57 34 -86 39 -38 68 -105 87 -199 14 -74 43
-103 83 -84 32 14 36 45 33 247 l-2 170 -117 3 -118 3 0 -54z"/>
<path d="M3058 4569 c-11 -6 -18 -22 -18 -40 0 -25 6 -33 35 -45 21 -8 40 -25
45 -40 11 -28 12 -909 1 -959 -4 -22 -16 -35 -44 -48 -30 -14 -37 -22 -37 -47
0 -19 7 -33 20 -40 12 -7 100 -9 242 -8 l223 3 0 615 0 615 -225 2 c-141 2
-232 -1 -242 -8z"/>
<path d="M3617 4573 c-4 -3 -7 -24 -7 -45 0 -33 5 -41 40 -63 63 -40 65 -52
65 -520 0 -461 -1 -465 -71 -498 -33 -16 -35 -20 -32 -60 3 -41 4 -42 41 -45
49 -4 158 31 211 67 178 123 258 295 258 556 0 130 -7 183 -37 270 -54 158
-192 289 -348 331 -56 15 -110 18 -120 7z"/>
<path d="M4278 4569 c-11 -6 -18 -22 -18 -39 0 -25 7 -33 37 -47 23 -11 40
-28 44 -43 9 -31 9 -914 0 -955 -4 -22 -16 -35 -44 -48 -30 -14 -37 -22 -37
-47 0 -19 7 -33 20 -40 12 -7 100 -9 242 -8 l223 3 0 615 0 615 -225 2 c-141
2 -232 -1 -242 -8z"/>
<path d="M4837 4573 c-4 -3 -7 -24 -7 -45 0 -33 5 -41 40 -63 63 -40 65 -52
65 -520 0 -461 -1 -465 -71 -498 -33 -16 -35 -20 -32 -60 3 -38 6 -42 33 -45
41 -5 130 16 174 40 147 81 238 205 288 388 21 77 21 316 0 390 -9 30 -19 66
-23 80 -26 89 -116 202 -209 265 -81 53 -233 94 -258 68z"/>
<path d="M1352 2263 c-33 -4 -34 -5 -29 -46 2 -23 12 -68 21 -100 21 -75 21
-75 -11 -79 -41 -5 -36 -32 7 -38 36 -5 43 -21 25 -62 -6 -16 1 -18 74 -18 45
0 81 1 81 3 0 2 -8 21 -19 43 -10 21 -21 55 -25 74 -3 19 -10 53 -15 75 -6 22
-14 60 -20 84 -8 39 -34 74 -50 69 -3 0 -21 -3 -39 -5z"/>
<path d="M1582 2263 c-27 -4 -32 -8 -26 -21 15 -30 14 -254 -1 -284 -7 -15
-10 -29 -7 -32 3 -3 34 -6 69 -6 l63 0 0 153 c0 104 4 157 12 165 6 6 9 14 6
18 -9 8 -77 13 -116 7z"/>
<path d="M1839 2259 c-6 -3 -6 -16 1 -34 14 -36 7 -260 -9 -278 -17 -21 -3
-27 66 -27 l63 0 0 153 c0 104 4 157 12 165 6 6 9 14 6 18 -8 8 -127 11 -139
3z"/>
<path d="M2304 2260 c-60 -24 -100 -118 -89 -207 8 -69 63 -133 113 -133 35 0
38 6 17 34 -22 29 -21 258 0 280 31 31 8 46 -41 26z"/>
<path d="M2383 2257 c-2 -4 7 -17 21 -28 14 -11 33 -36 42 -55 9 -19 20 -34
25 -34 5 0 9 28 9 63 l0 63 -46 -1 c-25 0 -48 -4 -51 -8z"/>
<path d="M2615 2255 c-16 -9 -41 -32 -55 -53 -20 -30 -24 -49 -24 -107 0 -80
17 -122 63 -154 16 -12 39 -21 51 -21 18 0 20 4 13 23 -10 29 -10 275 1 305
10 27 -5 29 -49 7z"/>
<path d="M2700 2257 c0 -9 5 -19 10 -22 6 -4 10 -62 10 -140 0 -78 -4 -136
-10 -140 -18 -11 -11 -35 11 -35 33 0 75 36 98 85 37 80 23 171 -36 227 -35
33 -83 47 -83 25z"/>
<path d="M2892 2263 c-28 -4 -31 -7 -21 -20 14 -16 17 -260 4 -300 -7 -22 -5
-23 59 -23 l66 0 0 170 c0 155 -2 170 -17 170 -10 0 -27 2 -38 4 -11 2 -35 1
-53 -1z"/>
<path d="M3659 2260 c-6 -5 -6 -15 0 -32 11 -30 9 -253 -3 -285 -8 -23 -7 -23
69 -23 70 0 76 2 69 18 -5 9 -10 80 -12 156 -2 105 0 141 10 147 7 4 10 10 8
13 -8 7 -130 12 -141 6z"/>
<path d="M3924 2260 c-33 -13 -64 -64 -64 -103 0 -47 35 -88 105 -121 45 -21
55 -30 55 -51 0 -14 -9 -30 -20 -37 -28 -18 -25 -28 10 -28 44 0 90 45 97 96
7 56 -17 96 -76 125 -80 40 -101 70 -66 99 29 24 1 37 -41 20z"/>
<path d="M4005 2260 c-4 -6 5 -20 20 -32 15 -11 31 -31 35 -44 5 -13 16 -24
25 -24 11 0 15 12 15 50 0 49 -1 50 -29 50 -16 0 -36 3 -44 6 -8 3 -18 0 -22
-6z"/>
<path d="M4354 2254 c-57 -28 -92 -122 -78 -211 5 -35 16 -55 45 -84 69 -69
74 -62 74 113 1 84 3 162 5 172 7 25 -9 29 -46 10z"/>
<path d="M4440 2255 c0 -8 7 -15 14 -15 16 0 66 -60 66 -78 0 -19 28 -14 33 6
10 38 7 83 -5 86 -7 3 -34 7 -60 10 -38 4 -48 3 -48 -9z"/>
<path d="M4663 2262 c-35 -2 -63 -7 -63 -12 0 -6 5 -10 10 -10 6 0 10 -47 10
-121 0 -124 6 -151 44 -181 26 -22 96 -24 96 -4 0 8 -4 18 -10 21 -6 4 -10 63
-10 146 0 86 4 139 10 139 17 0 11 17 -7 21 -10 2 -46 3 -80 1z"/>
<path d="M4838 2263 c-22 -5 -22 -3 -2 -42 12 -24 15 -55 12 -131 -3 -93 -5
-100 -32 -129 -34 -36 -27 -53 12 -29 38 23 50 68 51 182 1 78 5 103 18 118 9
10 14 20 12 22 -8 8 -54 14 -71 9z"/>
<path d="M4980 2260 c-6 -4 -6 -17 0 -41 15 -49 10 -239 -6 -265 -7 -12 -10
-24 -7 -28 4 -3 40 -6 81 -6 67 0 73 2 66 18 -14 29 -17 282 -3 298 6 8 9 17
5 21 -8 8 -123 11 -136 3z"/>
<path d="M5187 2263 c-24 -4 -26 -7 -16 -20 19 -22 23 -249 5 -284 -8 -15 -11
-30 -8 -33 3 -3 34 -6 69 -6 l63 0 0 153 c0 104 4 157 12 165 6 6 9 14 6 17
-8 8 -99 14 -131 8z"/>
<path d="M5446 2258 c-18 -10 -23 -92 -7 -103 6 -3 20 16 32 42 13 27 25 51
26 54 6 11 -34 17 -51 7z"/>
<path d="M5533 2263 c-10 -4 -13 -43 -13 -153 0 -118 -3 -150 -15 -160 -26
-21 -6 -30 70 -30 76 0 96 9 69 30 -12 11 -15 39 -13 157 0 79 -1 146 -3 148
-6 6 -82 12 -95 8z"/>
<path d="M5783 2263 c-18 -2 -33 -6 -33 -7 0 -3 16 -40 62 -146 5 -14 14 -33
19 -42 14 -27 11 -92 -6 -114 -8 -10 -15 -22 -15 -26 0 -10 154 -11 163 -1 4
3 1 13 -7 22 -7 9 -16 48 -19 86 -3 44 -13 87 -28 115 -12 25 -23 59 -23 77 0
27 -4 32 -29 37 -16 3 -35 5 -41 4 -6 0 -26 -3 -43 -5z"/>
<path d="M3020 2253 c0 -5 7 -17 15 -27 21 -28 21 -243 0 -272 -28 -41 12 -46
62 -8 48 36 63 73 63 149 0 75 -16 113 -59 144 -28 20 -81 29 -81 14z"/>
<path d="M3211 2243 c16 -18 19 -259 5 -300 -8 -22 -6 -23 58 -23 l66 0 0 170
0 170 -71 0 c-65 0 -70 -1 -58 -17z"/>
<path d="M3360 2250 c0 -5 5 -10 12 -10 6 0 28 -19 50 -42 l38 -41 0 51 0 52
-50 0 c-27 0 -50 -4 -50 -10z"/>
<path d="M5657 2254 c-4 -4 1 -21 10 -38 9 -17 19 -37 22 -45 13 -28 26 -10
29 39 3 49 3 50 -26 50 -16 0 -32 -3 -35 -6z"/>
<path d="M5950 2255 c0 -3 5 -14 12 -24 9 -15 8 -28 -5 -62 -28 -71 2 -65 34
6 10 23 26 48 34 55 26 21 17 30 -30 30 -25 0 -45 -2 -45 -5z"/>
<path d="M1296 2155 c-9 -13 -16 -31 -16 -40 0 -34 -44 -151 -62 -163 -27 -20
-13 -32 38 -32 47 0 51 5 30 33 -14 18 -11 45 14 132 16 55 23 95 17 95 -2 0
-12 -11 -21 -25z"/>
<path d="M3381 2131 c-22 -30 -27 -51 -13 -51 5 0 15 -11 22 -25 7 -13 17 -22
22 -19 11 7 10 124 -1 124 -5 0 -19 -13 -30 -29z"/>
<path d="M4435 2090 c-4 -6 -1 -17 5 -25 13 -15 10 -96 -4 -127 -7 -15 -3 -18
18 -18 36 0 83 25 90 47 2 10 6 43 8 73 l3 55 -57 3 c-33 2 -59 -2 -63 -8z"/>
<path d="M1772 2028 c-7 -7 -12 -17 -12 -24 0 -7 -13 -25 -30 -41 -16 -15 -30
-32 -30 -36 0 -4 21 -7 48 -5 l47 3 3 49 c3 52 -7 73 -26 54z"/>
<path d="M3860 1983 l0 -60 50 -1 c53 -1 62 8 31 30 -10 7 -27 29 -38 48 -31
55 -43 50 -43 -17z"/>
<path d="M5392 2028 c-7 -7 -12 -17 -12 -24 0 -7 -13 -25 -30 -41 -16 -15 -30
-31 -30 -35 0 -5 23 -8 50 -8 l50 0 0 54 c0 57 -9 73 -28 54z"/>
<path d="M2040 2005 c-5 -13 -21 -34 -35 -47 -36 -31 -31 -39 23 -36 l47 3 3
53 c2 42 0 52 -13 52 -8 0 -20 -11 -25 -25z"/>
<path d="M2450 1994 c-8 -14 -27 -32 -42 -40 -34 -17 -36 -34 -6 -34 29 0 78
48 78 77 0 30 -13 29 -30 -3z"/>
<path d="M3430 1995 c-8 -14 -25 -31 -39 -38 -47 -23 -38 -38 20 -35 l54 3 0
44 c0 51 -15 63 -35 26z"/>
<path d="M533 1502 c-29 -3 -49 -22 -23 -22 6 0 10 -47 10 -121 0 -124 6 -151
44 -181 26 -22 96 -24 96 -4 0 8 -4 18 -10 21 -16 10 -13 282 3 288 39 14 -46
28 -120 19z"/>
<path d="M738 1502 c-22 -4 -22 -3 -3 -38 17 -34 21 -188 5 -229 -6 -15 -20
-35 -33 -45 -28 -23 -15 -38 19 -20 40 22 54 70 54 185 0 79 3 105 15 115 8 7
15 16 15 20 0 9 -48 17 -72 12z"/>
<path d="M902 1502 l-42 -3 32 -40 c27 -34 30 -43 20 -59 -7 -12 -12 -55 -12
-104 0 -62 -4 -87 -15 -96 -29 -24 -18 -40 30 -40 50 0 53 4 25 40 -16 21 -20
41 -19 115 0 105 -4 107 90 -54 54 -91 59 -96 93 -99 l36 -3 0 58 c0 42 -6 68
-22 93 -22 36 -42 72 -79 138 -11 20 -24 40 -27 43 -11 10 -63 15 -110 11z"/>
<path d="M1308 1502 l-28 -3 0 -148 c0 -119 -3 -151 -15 -161 -26 -22 -6 -30
76 -30 79 0 92 6 64 30 -12 10 -15 41 -15 160 l0 148 -27 3 c-16 2 -40 3 -55
1z"/>
<path d="M1423 1494 c-5 -13 -1 -27 26 -82 13 -29 26 -15 29 32 2 32 -1 52
-10 57 -20 13 -38 11 -45 -7z"/>
<path d="M1547 1502 c-13 -3 -15 -9 -10 -30 11 -36 10 -239 0 -279 l-9 -33 76
0 c69 0 92 9 66 25 -15 9 -13 278 2 293 6 6 10 13 7 16 -6 5 -111 12 -132 8z"/>
<path d="M1740 1500 c-7 -4 -9 -13 -5 -20 14 -23 13 -263 -1 -286 -7 -12 -10
-24 -7 -28 4 -3 35 -6 70 -6 l63 0 0 153 c0 104 4 157 12 165 6 6 10 14 7 16
-9 9 -127 14 -139 6z"/>
<path d="M2157 1502 c-24 -3 -27 -7 -20 -25 10 -30 9 -255 -1 -289 l-8 -28 76
0 c59 0 76 3 76 14 0 8 -4 18 -10 21 -6 4 -10 67 -10 156 0 82 -3 149 -7 150
-25 4 -72 4 -96 1z"/>
<path d="M2507 1503 c-34 -4 -37 -6 -30 -26 10 -28 10 -230 0 -279 l-8 -38 76
0 c59 0 75 3 75 14 0 8 -4 18 -10 21 -6 4 -10 66 -10 154 0 146 0 149 -22 155
-13 3 -25 5 -28 4 -3 -1 -22 -3 -43 -5z"/>
<path d="M2895 1495 c-16 -9 -41 -32 -55 -53 -20 -30 -24 -49 -24 -107 0 -80
17 -122 63 -154 16 -12 40 -21 54 -21 25 0 25 1 11 30 -12 23 -14 58 -11 152
2 68 7 133 11 146 10 27 -5 29 -49 7z"/>
<path d="M2980 1497 c0 -9 5 -19 10 -22 6 -4 10 -62 10 -140 0 -78 -4 -136
-10 -140 -18 -11 -11 -35 11 -35 33 0 75 36 98 85 37 80 23 171 -36 227 -35
33 -83 47 -83 25z"/>
<path d="M3192 1502 c-24 -2 -42 -6 -40 -10 23 -46 42 -103 79 -237 24 -86 30
-95 60 -95 19 0 32 7 40 22 14 26 15 124 1 141 -12 15 -22 57 -30 126 -7 51
-8 54 -37 55 -16 1 -49 0 -73 -2z"/>
<path d="M3368 1503 c-19 -5 -25 -23 -9 -23 15 0 23 -37 13 -57 -5 -10 -13
-38 -17 -62 -11 -64 14 -49 32 19 7 30 23 68 34 83 11 16 19 30 17 31 -8 7
-55 13 -70 9z"/>
<path d="M3523 1503 c-40 -4 -41 -5 -29 -28 19 -36 20 -242 2 -277 -8 -15 -12
-29 -8 -32 3 -3 34 -6 69 -6 l63 0 0 170 c0 140 -2 170 -14 170 -8 0 -20 1
-28 3 -7 2 -32 2 -55 0z"/>
<path d="M3663 1503 c-28 -5 -30 -20 -3 -28 10 -3 30 -19 44 -36 14 -16 27
-29 30 -29 3 0 6 20 6 44 0 54 -12 62 -77 49z"/>
<path d="M3823 1502 c-18 -2 -33 -6 -33 -8 0 -3 12 -21 27 -41 22 -29 25 -38
15 -54 -7 -10 -12 -55 -12 -103 0 -62 -4 -87 -15 -96 -29 -24 -18 -40 30 -40
50 0 53 4 25 40 -16 20 -20 41 -20 113 0 81 10 110 24 70 3 -10 14 -31 23 -48
10 -16 38 -63 61 -102 40 -68 45 -73 77 -73 l35 0 0 58 c0 46 -6 67 -28 103
-16 24 -31 51 -35 59 -4 8 -20 38 -36 65 -25 44 -34 51 -67 55 -22 3 -54 4
-71 2z"/>
<path d="M4010 1501 c-12 -9 -12 -12 3 -29 9 -10 17 -32 17 -49 0 -47 11 -93
21 -87 5 3 9 30 9 61 0 44 5 62 22 80 l21 23 -25 0 c-15 0 -32 2 -40 5 -7 3
-20 1 -28 -4z"/>
<path d="M4302 1503 c-37 -4 -42 -6 -31 -19 7 -9 14 -63 17 -139 4 -102 2
-129 -11 -149 -9 -13 -13 -26 -10 -30 10 -10 153 -7 153 3 0 6 -4 13 -10 16
-15 9 -13 278 2 293 6 6 10 14 7 16 -8 8 -74 13 -117 9z"/>
<path d="M4513 1502 c-29 -4 -29 -6 4 -49 22 -29 25 -38 15 -54 -7 -10 -12
-55 -12 -102 0 -71 -3 -87 -20 -102 -11 -10 -17 -22 -14 -26 5 -9 94 -13 94
-4 0 2 -9 19 -20 37 -16 26 -20 51 -20 116 0 77 10 105 24 65 3 -10 14 -31 23
-48 10 -16 38 -63 61 -102 40 -68 45 -73 77 -73 l35 0 0 55 c0 36 -7 66 -20
90 -11 19 -28 50 -39 68 -10 17 -30 52 -44 77 -23 42 -28 45 -73 50 -27 3 -59
4 -71 2z"/>
<path d="M4848 1502 c-23 -5 -23 -7 9 -49 22 -29 25 -38 15 -54 -7 -10 -12
-55 -12 -103 0 -62 -4 -87 -15 -96 -29 -24 -18 -40 30 -40 50 0 53 4 28 33
-14 15 -19 41 -21 113 -3 57 0 94 6 94 5 0 12 -8 16 -17 3 -10 14 -31 23 -48
10 -16 38 -63 61 -102 40 -68 45 -73 77 -73 l35 0 0 55 c0 36 -7 66 -20 90
-11 19 -29 51 -40 70 -11 19 -29 52 -41 73 -11 20 -24 41 -29 45 -8 9 -93 15
-122 9z"/>
<path d="M5255 1495 c-16 -9 -41 -32 -55 -53 -20 -30 -24 -49 -24 -107 0 -80
17 -122 63 -154 37 -27 77 -29 65 -3 -4 9 -10 75 -12 145 -3 103 -1 133 12
151 24 38 3 46 -49 21z"/>
<path d="M5340 1497 c0 -9 5 -19 10 -22 6 -4 10 -62 10 -140 0 -78 -4 -136
-10 -140 -20 -12 -10 -35 15 -35 33 0 87 56 104 108 15 44 31 41 31 -5 0 -12
17 -40 38 -63 30 -30 47 -40 70 -40 37 0 38 2 16 35 -13 19 -15 48 -12 151 2
91 7 129 16 132 6 2 12 11 12 19 0 12 -7 14 -32 9 -44 -8 -108 -78 -108 -117
0 -16 -4 -29 -10 -29 -5 0 -10 5 -10 10 0 24 -43 100 -65 114 -37 25 -75 31
-75 13z"/>
<path d="M5664 1498 c-3 -5 6 -18 20 -29 14 -11 33 -36 42 -55 9 -19 20 -34
24 -34 9 0 18 108 10 118 -7 10 -90 9 -96 0z"/>
<path d="M6008 1503 c-26 -4 -41 -23 -18 -23 6 0 28 -19 50 -41 l40 -41 0 50
c0 47 -12 66 -38 61 -4 -1 -19 -4 -34 -6z"/>
<path d="M6188 1502 c-32 -2 -58 -5 -58 -8 0 -3 12 -21 27 -41 22 -29 25 -38
15 -54 -7 -10 -12 -55 -12 -103 0 -62 -4 -87 -15 -96 -29 -24 -18 -40 30 -40
50 0 53 4 25 40 -16 20 -20 41 -20 113 0 81 10 110 24 70 3 -10 14 -31 23 -48
10 -16 38 -63 61 -102 40 -68 45 -73 77 -73 l35 0 0 58 c0 41 -6 67 -22 92
-26 43 -55 93 -82 143 -26 48 -36 53 -108 49z"/>
<path d="M6358 1503 c-22 -5 -23 -17 -3 -33 8 -7 15 -27 15 -45 0 -48 11 -95
21 -89 5 3 9 30 9 61 0 39 5 62 17 75 9 10 14 20 12 22 -8 7 -55 13 -71 9z"/>
<path d="M6488 1502 c-14 -3 -18 -14 -18 -52 0 -27 4 -51 9 -55 6 -3 20 16 32
42 13 27 25 51 26 54 5 9 -28 16 -49 11z"/>
<path d="M6583 1503 c-23 -4 -23 -7 -23 -152 0 -119 -3 -151 -15 -161 -26 -22
-6 -30 76 -30 79 0 92 6 64 30 -13 11 -16 38 -14 157 0 79 -1 146 -2 147 -8 7
-65 12 -86 9z"/>
<path d="M6703 1494 c-5 -13 -1 -27 26 -82 13 -29 26 -15 29 32 2 32 -1 52
-10 57 -20 13 -38 11 -45 -7z"/>
<path d="M1080 1491 c0 -5 7 -14 15 -21 8 -7 15 -27 15 -45 0 -48 11 -95 21
-89 5 3 9 31 9 63 0 56 11 81 37 81 8 0 13 -14 13 -39 0 -57 16 -59 41 -4 13
27 25 51 27 55 2 4 -38 7 -87 7 -50 0 -91 -3 -91 -8z"/>
<path d="M2280 1491 c0 -5 7 -15 16 -22 13 -10 15 -27 12 -78 -2 -38 -9 -66
-16 -69 -27 -9 -9 -22 29 -22 55 0 99 44 99 100 0 56 -44 100 -99 100 -23 0
-41 -4 -41 -9z"/>
<path d="M2620 1495 c0 -3 7 -17 16 -31 19 -28 15 -111 -6 -124 -9 -6 -8 -15
4 -38 9 -17 16 -46 16 -64 0 -50 24 -78 66 -78 20 0 44 5 55 10 22 13 26 50 4
50 -10 0 -15 10 -15 33 0 33 -24 67 -48 67 -18 0 -15 5 18 38 60 60 21 142
-66 142 -24 0 -44 -2 -44 -5z"/>
<path d="M4700 1491 c0 -5 7 -14 15 -21 8 -7 15 -24 15 -39 0 -47 12 -101 21
-95 5 3 9 31 9 63 0 40 5 63 15 71 26 21 17 30 -30 30 -25 0 -45 -4 -45 -9z"/>
<path d="M5040 1493 c0 -3 7 -14 15 -23 12 -13 19 -52 24 -128 1 -7 6 -10 11
-7 6 3 10 31 10 62 0 44 5 62 22 80 l21 23 -51 0 c-29 0 -52 -3 -52 -7z"/>
<path d="M5837 1473 c11 -38 10 -251 -1 -285 l-8 -28 66 0 66 0 0 170 0 170
-65 0 -65 0 7 -27z"/>
<path d="M3661 1371 c-22 -30 -27 -51 -13 -51 5 0 15 -11 22 -25 7 -13 17 -22
22 -19 11 7 10 124 -1 124 -5 0 -19 -13 -30 -29z"/>
<path d="M6002 1370 c-23 -30 -28 -50 -14 -50 5 0 14 -12 20 -26 7 -14 17 -22
22 -19 12 7 14 125 2 125 -5 0 -18 -13 -30 -30z"/>
<path d="M1953 1267 c-5 -6 -15 -24 -23 -39 -7 -15 -21 -30 -32 -34 -10 -3
-18 -12 -18 -20 0 -10 13 -14 50 -14 l50 0 0 54 c0 56 -10 76 -27 53z"/>
<path d="M3710 1235 c-8 -14 -25 -31 -38 -38 -38 -18 -27 -32 26 -32 l47 0 0
44 c0 51 -15 63 -35 26z"/>
<path d="M5732 1235 c-6 -13 -25 -31 -42 -40 -35 -18 -39 -35 -8 -35 29 0 78
48 78 77 0 30 -14 29 -28 -2z"/>
<path d="M6050 1235 c-8 -14 -25 -31 -38 -38 -38 -18 -27 -32 26 -32 l47 0 0
44 c0 51 -15 63 -35 26z"/>
</g>
</svg>
