<?xml version="1.0" standalone="no"?>
<!DOCTYPE svg PUBLIC "-//W3C//DTD SVG 20010904//EN"
 "http://www.w3.org/TR/2001/REC-SVG-20010904/DTD/svg10.dtd">
<svg version="1.0" xmlns="http://www.w3.org/2000/svg"
 width="826.000000pt" height="614.000000pt" viewBox="0 0 826.000000 614.000000"
 preserveAspectRatio="xMidYMid meet">

<g transform="translate(0.000000,614.000000) scale(0.100000,-0.100000)"
fill="#000000" stroke="none">
<path d="M0 3070 l0 -3070 4130 0 4130 0 0 3070 0 3070 -4130 0 -4130 0 0
-3070z m4718 628 l3 -138 167 0 c92 0 187 -5 212 -11 67 -15 134 -63 172 -122
32 -50 33 -55 33 -153 0 -99 -1 -102 -35 -153 -64 -94 -146 -130 -297 -131
l-83 0 0 -105 0 -105 -85 0 -85 0 -2 -282 -3 -283 -2212 -3 -2213 -2 0 815 0
815 2213 -2 2212 -3 3 -137z m1116 -133 c214 -45 344 -243 307 -467 -23 -138
-101 -240 -229 -301 -62 -30 -75 -32 -172 -32 -98 0 -110 2 -176 33 -90 43
-153 105 -196 197 -31 65 -33 77 -33 176 0 101 1 108 38 181 59 120 159 195
287 217 79 13 97 12 174 -4z m1496 -10 c80 -28 145 -110 152 -191 l3 -39 -89
0 -89 0 -12 34 c-15 44 -49 71 -92 71 -40 0 -83 -37 -83 -71 0 -33 59 -82 126
-103 138 -43 223 -108 245 -188 47 -176 -100 -321 -310 -306 -147 11 -260 113
-261 236 l0 42 90 0 c76 0 90 -3 90 -16 0 -56 63 -114 123 -114 38 0 87 46 87
80 0 58 -20 74 -146 121 -179 67 -250 157 -224 283 30 147 214 223 390 161z
m-760 -6 c126 -20 232 -101 288 -219 23 -48 26 -68 26 -160 1 -93 -3 -112 -26
-161 -50 -109 -142 -186 -256 -213 -51 -13 -105 -16 -232 -14 l-165 3 -3 375
c-1 206 0 381 3 387 6 16 270 18 365 2z m1213 -179 c42 -100 77 -188 77 -196
0 -15 -64 -172 -130 -319 l-29 -65 -53 21 c-29 11 -57 24 -61 28 -5 5 3 32 17
62 14 30 46 103 71 163 l46 109 -25 61 c-13 34 -45 108 -70 165 -25 58 -45
106 -43 107 1 1 20 11 42 22 75 39 73 41 158 -158z"/>
<path d="M1125 3560 c-58 -12 -145 -52 -184 -86 -142 -119 -174 -361 -69 -525
61 -96 147 -150 266 -170 191 -32 372 59 431 215 l19 51 -87 3 c-74 3 -87 1
-96 -15 -43 -77 -129 -120 -217 -110 -132 16 -215 122 -206 265 5 89 41 153
112 197 42 26 59 30 115 30 74 -1 117 -19 162 -68 16 -17 31 -43 34 -59 l7
-28 89 0 89 0 -6 28 c-25 109 -107 205 -210 246 -72 29 -183 41 -249 26z"/>
<path d="M1962 3560 c-119 -25 -215 -100 -274 -212 -32 -61 -33 -67 -33 -178
0 -111 1 -117 34 -183 79 -158 243 -237 428 -209 169 27 295 154 323 326 38
236 -125 444 -361 460 -41 3 -93 1 -117 -4z m173 -164 c66 -31 101 -70 125
-139 24 -68 25 -97 4 -168 -21 -71 -90 -142 -154 -159 -125 -34 -247 38 -281
164 -26 95 10 222 77 272 74 57 151 67 229 30z"/>
<path d="M2822 3560 c-126 -27 -229 -107 -280 -218 -35 -75 -43 -211 -17 -297
41 -142 157 -241 313 -266 203 -33 395 74 438 246 l6 25 -85 0 -84 0 -26 -39
c-91 -137 -311 -112 -387 44 -25 52 -29 164 -7 217 45 108 166 168 277 138 50
-13 125 -82 136 -125 6 -24 9 -25 90 -25 75 0 84 2 84 18 0 45 -35 114 -85
170 -43 47 -69 65 -120 86 -74 29 -183 41 -253 26z"/>
<path d="M3660 3559 c-117 -23 -228 -109 -276 -214 -48 -103 -47 -260 1 -355
62 -122 163 -194 297 -212 197 -26 362 66 433 241 37 89 36 215 -2 307 -72
174 -259 271 -453 233z m189 -168 c48 -25 96 -87 112 -145 15 -56 6 -153 -19
-203 -65 -127 -233 -163 -338 -71 -84 74 -112 201 -66 303 30 65 56 92 117
122 60 29 129 27 194 -6z"/>
<path d="M4364 3393 c-144 -299 -284 -594 -284 -598 0 -3 40 -5 89 -5 l88 0
21 50 21 51 118 -3 118 -3 3 -48 3 -48 80 3 80 3 -1 363 c0 199 0 369 0 377 0
13 -21 15 -130 15 l-130 0 -76 -157z m171 -371 c-3 -9 -26 -12 -87 -10 -97 4
-96 -1 -41 117 19 42 51 112 71 156 20 44 41 86 46 94 8 10 12 -37 14 -165 1
-98 0 -184 -3 -192z"/>
<path d="M627 3528 c-3 -7 -37 -87 -76 -177 -39 -91 -71 -169 -71 -175 0 -11
145 -365 152 -372 7 -6 98 39 98 48 0 5 -26 71 -59 146 -32 75 -62 147 -65
159 -5 16 12 68 58 177 36 85 66 159 66 164 0 8 -74 42 -92 42 -3 0 -8 -6 -11
-12z"/>
<path d="M4890 3275 l0 -125 79 0 c71 0 83 3 110 26 60 50 60 148 0 198 -27
23 -39 26 -110 26 l-79 0 0 -125z"/>
<path d="M5682 3398 c-85 -19 -162 -127 -162 -228 0 -58 32 -134 74 -176 61
-62 134 -78 217 -49 59 21 105 68 129 132 24 65 25 102 5 171 -35 117 -142
178 -263 150z"/>
<path d="M6390 3170 l0 -220 75 0 c92 0 129 14 177 68 77 85 78 218 2 302 -49
55 -89 70 -178 70 l-76 0 0 -220z"/>
</g>
</svg>
